<svg xmlns="http://www.w3.org/2000/svg" xmlns:xlink="http://www.w3.org/1999/xlink" version="1.1" x="0px" y="0px" viewBox="0 0 25 25" enable-background="new 0 0 25 25" xml:space="preserve" stroke="#66D9EF"><g><g><path d="M15.5,21.498H13v-8.051c1.14-0.232,2-1.241,2-2.449c0-1.379-1.122-2.5-2.5-2.5s-2.5,1.121-2.5,2.5    c0,1.208,0.86,2.217,2,2.449v8.051H9.5c-0.276,0-0.5,0.224-0.5,0.5s0.224,0.5,0.5,0.5h6c0.276,0,0.5-0.224,0.5-0.5    S15.776,21.498,15.5,21.498z M11,10.998c0-0.827,0.673-1.5,1.5-1.5s1.5,0.673,1.5,1.5s-0.673,1.5-1.5,1.5S11,11.825,11,10.998z"></path><path d="M12.5,5.498c-1.469,0-2.851,0.572-3.889,1.611c-0.195,0.195-0.195,0.512,0,0.707s0.512,0.195,0.707,0    c0.85-0.851,1.98-1.318,3.182-1.318c1.202,0,2.332,0.468,3.182,1.318c0.098,0.098,0.226,0.146,0.354,0.146    s0.256-0.049,0.354-0.146c0.195-0.195,0.195-0.512,0-0.707C15.35,6.07,13.969,5.498,12.5,5.498z"></path><path d="M6.49,4.987c-0.195,0.195-0.195,0.512,0,0.707s0.512,0.195,0.707,0c2.924-2.924,7.683-2.924,10.606,0    c0.098,0.098,0.226,0.146,0.354,0.146s0.256-0.049,0.354-0.146c0.195-0.195,0.195-0.512,0-0.707    C15.196,1.673,9.804,1.673,6.49,4.987z"></path></g></g></svg>