<svg xmlns="http://www.w3.org/2000/svg" xmlns:xlink="http://www.w3.org/1999/xlink" version="1.1" x="0px" y="0px" viewBox="0 0 100 100" enable-background="new 0 0 100 100" xml:space="preserve" fill="#A6E22E"><g><g><path d="M50.357,74.378c-2.306,0-4.182,1.875-4.182,4.181s1.876,4.181,4.182,4.181c2.305,0,4.179-1.875,4.179-4.181    S52.662,74.378,50.357,74.378z M50.357,81.039c-1.368,0-2.482-1.113-2.482-2.48s1.114-2.48,2.482-2.48    c1.367,0,2.479,1.113,2.479,2.48S51.725,81.039,50.357,81.039z"></path><path d="M37.605,87.181h25.501c2.917,0,5.29-2.374,5.29-5.292V19.718c0-2.917-2.373-5.291-5.29-5.291H37.605    c-2.917,0-5.29,2.374-5.29,5.291v62.171C32.315,84.807,34.688,87.181,37.605,87.181z M63.106,85.48H37.605    c-1.979,0-3.591-1.611-3.591-3.591v-9.142h32.683v9.142C66.697,83.87,65.086,85.48,63.106,85.48z M66.697,21.401v49.646H34.015    V21.401H66.697z M37.605,16.127h25.501c1.974,0,3.58,1.601,3.589,3.573H34.017C34.026,17.729,35.632,16.127,37.605,16.127z"></path><rect x="43.993" y="46.156" width="9.141" height="1.7"></rect><rect x="54.417" y="46.156" width="2.302" height="1.7"></rect></g></g></svg>